<?xml version="1.0" encoding="UTF-8"?>
<svg xmlns="http://www.w3.org/2000/svg" viewBox="0 0 200 200" role="img" aria-label="Braino AI logo">
  <defs>
    <linearGradient id="gradA" x1="0" x2="1">
      <stop offset="0%" stop-color="#4F46E5" />
      <stop offset="100%" stop-color="#06B6D4" />
    </linearGradient>
    <linearGradient id="gradB" x1="0" x2="1">
      <stop offset="0%" stop-color="#F59E0B" />
      <stop offset="100%" stop-color="#FB7185" />
    </linearGradient>
  </defs>
  <rect width="200" height="200" rx="28" fill="#ffffff" />
  <!-- abstract brain outline (original design inspired by mental-health motif) -->
  <g transform="translate(24,20)">
    <path d="M36 34c-8 6-14 16-12 28 2 12 12 20 24 18 2 6 8 10 16 10s14-4 16-10c12 2 22-6 24-18 2-12-4-22-12-28-6-4-10-6-18-6-8 0-12 2-18 6-6-4-10-6-18-6-8 0-12 2-18 6z" fill="url(#gradA)" />
    <!-- inner neural lines (stylized, original) -->
    <path d="M50 54c6-6 12-8 18-6s10 6 12 12" fill="none" stroke="#ffffff" stroke-width="2.5" stroke-linecap="round" stroke-linejoin="round" opacity="0.9"/>
    <path d="M30 70c6-4 12-6 18-4s8 6 12 10" fill="none" stroke="#ffffff" stroke-width="2" stroke-linecap="round" stroke-linejoin="round" opacity="0.8"/>
    <circle cx="92" cy="36" r="6" fill="url(#gradB)" opacity="0.95" />
    <circle cx="20" cy="20" r="4" fill="#fff" opacity="0.9" />
    <!-- small accent dots -->
    <circle cx="70" cy="86" r="3" fill="#fff" opacity="0.7" />
  </g>
  <!-- subtle frame shadow -->
  <rect x="2" y="2" width="196" height="196" rx="26" fill="none" stroke="#000" stroke-opacity="0.03"/>
</svg>
